G04 #@! TF.GenerationSoftware,KiCad,Pcbnew,(5.1.2-1)-1*
G04 #@! TF.CreationDate,2019-07-21T10:06:24-04:00*
G04 #@! TF.ProjectId,BUSJUMP,4255534a-554d-4502-9e6b-696361645f70,rev?*
G04 #@! TF.SameCoordinates,Original*
G04 #@! TF.FileFunction,Paste,Top*
G04 #@! TF.FilePolarity,Positive*
%FSLAX46Y46*%
G04 Gerber Fmt 4.6, Leading zero omitted, Abs format (unit mm)*
G04 Created by KiCad (PCBNEW (5.1.2-1)-1) date 2019-07-21 10:06:24*
%MOMM*%
%LPD*%
G04 APERTURE LIST*
%ADD10C,0.100000*%
%ADD11C,0.973800*%
G04 APERTURE END LIST*
D10*
G36*
X112202312Y-127823272D02*
G01*
X112225945Y-127826778D01*
X112249120Y-127832583D01*
X112271614Y-127840632D01*
X112293212Y-127850846D01*
X112313704Y-127863129D01*
X112332893Y-127877361D01*
X112350595Y-127893405D01*
X112366639Y-127911107D01*
X112380871Y-127930296D01*
X112393154Y-127950788D01*
X112403368Y-127972386D01*
X112411417Y-127994880D01*
X112417222Y-128018055D01*
X112420728Y-128041688D01*
X112421900Y-128065550D01*
X112421900Y-128552450D01*
X112420728Y-128576312D01*
X112417222Y-128599945D01*
X112411417Y-128623120D01*
X112403368Y-128645614D01*
X112393154Y-128667212D01*
X112380871Y-128687704D01*
X112366639Y-128706893D01*
X112350595Y-128724595D01*
X112332893Y-128740639D01*
X112313704Y-128754871D01*
X112293212Y-128767154D01*
X112271614Y-128777368D01*
X112249120Y-128785417D01*
X112225945Y-128791222D01*
X112202312Y-128794728D01*
X112178450Y-128795900D01*
X111341550Y-128795900D01*
X111317688Y-128794728D01*
X111294055Y-128791222D01*
X111270880Y-128785417D01*
X111248386Y-128777368D01*
X111226788Y-128767154D01*
X111206296Y-128754871D01*
X111187107Y-128740639D01*
X111169405Y-128724595D01*
X111153361Y-128706893D01*
X111139129Y-128687704D01*
X111126846Y-128667212D01*
X111116632Y-128645614D01*
X111108583Y-128623120D01*
X111102778Y-128599945D01*
X111099272Y-128576312D01*
X111098100Y-128552450D01*
X111098100Y-128065550D01*
X111099272Y-128041688D01*
X111102778Y-128018055D01*
X111108583Y-127994880D01*
X111116632Y-127972386D01*
X111126846Y-127950788D01*
X111139129Y-127930296D01*
X111153361Y-127911107D01*
X111169405Y-127893405D01*
X111187107Y-127877361D01*
X111206296Y-127863129D01*
X111226788Y-127850846D01*
X111248386Y-127840632D01*
X111270880Y-127832583D01*
X111294055Y-127826778D01*
X111317688Y-127823272D01*
X111341550Y-127822100D01*
X112178450Y-127822100D01*
X112202312Y-127823272D01*
X112202312Y-127823272D01*
G37*
D11*
X111760000Y-128309000D03*
D10*
G36*
X112202312Y-129523272D02*
G01*
X112225945Y-129526778D01*
X112249120Y-129532583D01*
X112271614Y-129540632D01*
X112293212Y-129550846D01*
X112313704Y-129563129D01*
X112332893Y-129577361D01*
X112350595Y-129593405D01*
X112366639Y-129611107D01*
X112380871Y-129630296D01*
X112393154Y-129650788D01*
X112403368Y-129672386D01*
X112411417Y-129694880D01*
X112417222Y-129718055D01*
X112420728Y-129741688D01*
X112421900Y-129765550D01*
X112421900Y-130252450D01*
X112420728Y-130276312D01*
X112417222Y-130299945D01*
X112411417Y-130323120D01*
X112403368Y-130345614D01*
X112393154Y-130367212D01*
X112380871Y-130387704D01*
X112366639Y-130406893D01*
X112350595Y-130424595D01*
X112332893Y-130440639D01*
X112313704Y-130454871D01*
X112293212Y-130467154D01*
X112271614Y-130477368D01*
X112249120Y-130485417D01*
X112225945Y-130491222D01*
X112202312Y-130494728D01*
X112178450Y-130495900D01*
X111341550Y-130495900D01*
X111317688Y-130494728D01*
X111294055Y-130491222D01*
X111270880Y-130485417D01*
X111248386Y-130477368D01*
X111226788Y-130467154D01*
X111206296Y-130454871D01*
X111187107Y-130440639D01*
X111169405Y-130424595D01*
X111153361Y-130406893D01*
X111139129Y-130387704D01*
X111126846Y-130367212D01*
X111116632Y-130345614D01*
X111108583Y-130323120D01*
X111102778Y-130299945D01*
X111099272Y-130276312D01*
X111098100Y-130252450D01*
X111098100Y-129765550D01*
X111099272Y-129741688D01*
X111102778Y-129718055D01*
X111108583Y-129694880D01*
X111116632Y-129672386D01*
X111126846Y-129650788D01*
X111139129Y-129630296D01*
X111153361Y-129611107D01*
X111169405Y-129593405D01*
X111187107Y-129577361D01*
X111206296Y-129563129D01*
X111226788Y-129550846D01*
X111248386Y-129540632D01*
X111270880Y-129532583D01*
X111294055Y-129526778D01*
X111317688Y-129523272D01*
X111341550Y-129522100D01*
X112178450Y-129522100D01*
X112202312Y-129523272D01*
X112202312Y-129523272D01*
G37*
D11*
X111760000Y-130009000D03*
M02*
